<svg width="845" height="845" viewBox="0 0 845 845" fill="none" xmlns="http://www.w3.org/2000/svg">
<path fill-rule="evenodd" clip-rule="evenodd" d="M845 422.5C845 655.84 655.84 845 422.5 845C189.16 845 0 655.84 0 422.5C0 189.16 189.16 0 422.5 0C655.84 0 845 189.16 845 422.5ZM166 279.86C166 216.977 216.977 166 279.86 166H564.511C627.394 166 678.371 216.977 678.371 279.86V678.371H279.86C216.977 678.371 166 627.394 166 564.51V279.86ZM441.238 397.996H532.819V349.682C532.819 330.692 523.325 321.198 504.335 321.198H339.561C320.571 321.198 311.077 330.692 311.077 349.682V516.98C311.077 535.97 320.571 545.464 339.561 545.464H504.335C523.325 545.464 532.819 535.97 532.819 516.98V430.086H418.523V451.359H441.238V513.014C441.238 517.822 440.517 520.946 439.074 522.389C437.632 523.591 434.628 524.191 430.06 524.191H413.835C409.028 524.191 405.903 523.591 404.461 522.389C403.259 520.946 402.658 517.822 402.658 513.014V353.648C402.658 348.84 403.259 345.836 404.461 344.634C405.903 343.192 409.028 342.471 413.835 342.471H430.06C434.628 342.471 437.632 343.192 439.074 344.634C440.517 345.836 441.238 348.84 441.238 353.648V397.996Z" fill="#040404"/>
</svg>
