<svg width="845" height="845" viewBox="0 0 845 845" fill="none" xmlns="http://www.w3.org/2000/svg">
<path d="M845 422.5C845 655.84 655.84 845 422.5 845C189.16 845 0 655.84 0 422.5C0 189.16 189.16 0 422.5 0C655.84 0 845 189.16 845 422.5Z" fill="#B70000"/>
<path d="M166 279.86C166 216.977 216.977 166 279.86 166H564.511C627.394 166 678.371 216.977 678.371 279.86V678.371H279.86C216.977 678.371 166 627.394 166 564.511V279.86Z" fill="white"/>
<path d="M532.819 397.996H441.238V353.648C441.238 348.84 440.517 345.836 439.074 344.634C437.632 343.191 434.628 342.47 430.061 342.47H413.835C409.028 342.47 405.903 343.191 404.461 344.634C403.259 345.836 402.658 348.84 402.658 353.648V513.014C402.658 517.821 403.259 520.946 404.461 522.388C405.903 523.59 409.028 524.191 413.835 524.191H430.061C434.628 524.191 437.632 523.59 439.074 522.388C440.517 520.946 441.238 517.821 441.238 513.014V451.359H418.523V430.086H532.819V516.98C532.819 535.969 523.325 545.464 504.335 545.464H339.561C320.571 545.464 311.077 535.969 311.077 516.98V349.682C311.077 330.692 320.571 321.198 339.561 321.198H504.335C523.325 321.198 532.819 330.692 532.819 349.682V397.996Z" fill="#B70000"/>
</svg>
