<svg width="1445" height="513" viewBox="0 0 1445 513" fill="none" xmlns="http://www.w3.org/2000/svg">
<path d="M1429.48 206.419H1444.26V233.1H1411.81C1402.43 233.1 1395.34 235.624 1390.54 240.672C1385.73 245.719 1383.32 252.33 1383.32 260.502V382.371H1296.79V207.5H1383.32V228.773C1389.33 213.87 1404.72 206.419 1429.48 206.419Z" fill="white"/>
<path d="M1164.96 361.098H1175.05C1184.19 361.098 1188.75 357.612 1188.75 350.642V239.229C1188.75 232.259 1184.19 228.773 1175.05 228.773H1164.96C1160.39 228.773 1157.38 229.494 1155.94 230.937C1154.5 232.379 1153.78 235.383 1153.78 239.951V349.92C1153.78 354.728 1154.5 357.853 1155.94 359.295C1157.38 360.497 1160.39 361.098 1164.96 361.098ZM1188.75 207.5H1275.29V382.371H1188.75V372.996C1185.39 379.246 1178.42 382.371 1167.84 382.371H1095.73C1076.74 382.371 1067.25 372.876 1067.25 353.887V235.984C1067.25 216.995 1076.74 207.5 1095.73 207.5H1167.84C1178.42 207.5 1185.39 210.625 1188.75 216.875V207.5Z" fill="white"/>
<path d="M926.036 282.136H967.5V239.951C967.5 235.383 966.779 232.379 965.337 230.937C964.135 229.494 961.13 228.773 956.323 228.773H937.213C932.646 228.773 929.642 229.494 928.2 230.937C926.757 232.379 926.036 235.383 926.036 239.951V282.136ZM867.987 207.5H1022.67C1041.65 207.5 1051.15 216.995 1051.15 235.984V303.409H926.036V349.92C926.036 354.728 926.757 357.853 928.2 359.295C929.642 360.497 932.646 361.098 937.213 361.098H956.323C961.13 361.098 964.135 360.497 965.337 359.295C966.779 357.853 967.5 354.728 967.5 349.92V323.239H1051.15V353.887C1051.15 372.876 1041.65 382.371 1022.67 382.371H867.987C848.997 382.371 839.503 372.876 839.503 353.887V235.984C839.503 216.995 848.997 207.5 867.987 207.5Z" fill="white"/>
<path d="M821.573 234.903H729.992V190.554C729.992 185.747 729.271 182.742 727.828 181.54C726.386 180.098 723.382 179.377 718.814 179.377H702.589C697.782 179.377 694.657 180.098 693.215 181.54C692.013 182.742 691.412 185.747 691.412 190.554V349.92C691.412 354.728 692.013 357.853 693.215 359.295C694.657 360.497 697.782 361.098 702.589 361.098H718.814C723.382 361.098 726.386 360.497 727.828 359.295C729.271 357.853 729.992 354.728 729.992 349.92V288.265H707.277V266.992H821.573V353.887C821.573 372.876 812.079 382.371 793.089 382.371H628.315C609.325 382.371 599.831 372.876 599.831 353.887V186.588C599.831 167.599 609.325 158.104 628.315 158.104H793.089C812.079 158.104 821.573 167.599 821.573 186.588V234.903Z" fill="white"/>
<path d="M0 114.231C0 51.3475 50.9769 0.370605 113.86 0.370605H398.511C461.394 0.370605 512.371 51.3475 512.371 114.231V512.741H113.86C50.9769 512.741 0 461.764 0 398.881V114.231Z" fill="white"/>
<path d="M366.819 232.367H275.238V188.018C275.238 183.211 274.517 180.206 273.074 179.004C271.632 177.562 268.628 176.841 264.061 176.841H247.835C243.028 176.841 239.903 177.562 238.461 179.004C237.259 180.206 236.658 183.211 236.658 188.018V347.385C236.658 352.192 237.259 355.317 238.461 356.759C239.903 357.961 243.028 358.562 247.835 358.562H264.061C268.628 358.562 271.632 357.961 273.074 356.759C274.517 355.317 275.238 352.192 275.238 347.385V285.729H252.523V264.456H366.819V351.351C366.819 370.34 357.325 379.835 338.335 379.835H173.561C154.571 379.835 145.077 370.34 145.077 351.351V184.052C145.077 165.063 154.571 155.568 173.561 155.568H338.335C357.325 155.568 366.819 165.063 366.819 184.052V232.367Z" fill="#B70000"/>
</svg>
