<svg width="1679" height="656" viewBox="0 0 1679 656" fill="none" xmlns="http://www.w3.org/2000/svg">
<path fill-rule="evenodd" clip-rule="evenodd" d="M0 0.482422H1679V655.482H0V0.482422ZM1546.48 277.531H1561.26V304.212H1528.81C1519.43 304.212 1512.34 306.736 1507.54 311.783C1502.73 316.831 1500.32 323.441 1500.32 331.614V453.482H1413.79V278.612H1500.32V299.885C1506.33 284.982 1521.72 277.531 1546.48 277.531ZM1292.05 432.21H1281.96C1277.39 432.21 1274.38 431.609 1272.94 430.407C1271.5 428.965 1270.78 425.84 1270.78 421.032V311.062C1270.78 306.495 1271.5 303.491 1272.94 302.048C1274.38 300.606 1277.39 299.885 1281.96 299.885H1292.05C1301.19 299.885 1305.75 303.37 1305.75 310.341V421.753C1305.75 428.724 1301.19 432.21 1292.05 432.21ZM1392.29 278.612H1305.75V287.987C1302.39 281.737 1295.42 278.612 1284.84 278.612H1212.73C1193.74 278.612 1184.25 288.107 1184.25 307.096V424.998C1184.25 443.988 1193.74 453.482 1212.73 453.482H1284.84C1295.42 453.482 1302.39 450.358 1305.75 444.108V453.482H1392.29V278.612ZM1043.04 353.248H1084.5V311.062C1084.5 306.495 1083.78 303.491 1082.34 302.048C1081.14 300.606 1078.13 299.885 1073.32 299.885H1054.21C1049.65 299.885 1046.64 300.606 1045.2 302.048C1043.76 303.491 1043.04 306.495 1043.04 311.062V353.248ZM984.987 278.612H1139.67C1158.65 278.612 1168.15 288.107 1168.15 307.096V374.52H1043.04V421.032C1043.04 425.84 1043.76 428.965 1045.2 430.407C1046.64 431.609 1049.65 432.21 1054.21 432.21H1073.32C1078.13 432.21 1081.14 431.609 1082.34 430.407C1083.78 428.965 1084.5 425.84 1084.5 421.032V394.351H1168.15V424.998C1168.15 443.988 1158.65 453.482 1139.67 453.482H984.987C965.997 453.482 956.503 443.988 956.503 424.998V307.096C956.503 288.107 965.997 278.612 984.987 278.612ZM846.992 306.015H938.573V257.7C938.573 238.711 929.079 229.216 910.089 229.216H745.315C726.325 229.216 716.831 238.711 716.831 257.7V424.998C716.831 443.988 726.325 453.482 745.315 453.482H910.089C929.079 453.482 938.573 443.988 938.573 424.998V338.104H824.277V359.377H846.992V421.032C846.992 425.84 846.271 428.965 844.828 430.407C843.386 431.609 840.382 432.21 835.814 432.21H819.589C814.782 432.21 811.657 431.609 810.215 430.407C809.013 428.965 808.412 425.84 808.412 421.032V261.666C808.412 256.859 809.013 253.854 810.215 252.652C811.657 251.21 814.782 250.489 819.589 250.489H835.814C840.382 250.489 843.386 251.21 844.828 252.652C846.271 253.854 846.992 256.859 846.992 261.666V306.015ZM117 185.342C117 122.459 167.977 71.4824 230.86 71.4824H515.511C578.394 71.4824 629.371 122.459 629.371 185.343V583.853H230.86C167.977 583.853 117 532.876 117 469.993V185.342ZM392.238 303.479H483.819V255.164C483.819 236.175 474.325 226.68 455.335 226.68H290.561C271.571 226.68 262.077 236.175 262.077 255.164V422.462C262.077 441.452 271.571 450.947 290.561 450.947H455.335C474.325 450.947 483.819 441.452 483.819 422.462V335.568H369.523V356.841H392.238V418.496C392.238 423.304 391.517 426.429 390.075 427.871C388.632 429.073 385.628 429.674 381.061 429.674H364.836C360.028 429.674 356.903 429.073 355.461 427.871C354.259 426.429 353.658 423.304 353.658 418.496V259.13C353.658 254.323 354.259 251.318 355.461 250.116C356.903 248.674 360.028 247.953 364.836 247.953H381.061C385.628 247.953 388.632 248.674 390.075 250.116C391.517 251.318 392.238 254.323 392.238 259.13V303.479Z" fill="#040404"/>
</svg>
