<svg width="1445" height="513" viewBox="0 0 1445 513" fill="none" xmlns="http://www.w3.org/2000/svg">
<path d="M1429.48 206.048H1444.26V232.729H1411.81C1402.43 232.729 1395.34 235.253 1390.54 240.301C1385.73 245.349 1383.32 251.959 1383.32 260.132V382H1296.79V207.13H1383.32V228.403C1389.33 213.5 1404.72 206.048 1429.48 206.048Z" fill="#B70000"/>
<path d="M1164.96 360.727H1175.05C1184.19 360.727 1188.75 357.242 1188.75 350.271V238.859C1188.75 231.888 1184.19 228.403 1175.05 228.403H1164.96C1160.39 228.403 1157.38 229.124 1155.94 230.566C1154.5 232.008 1153.78 235.013 1153.78 239.58V349.55C1153.78 354.357 1154.5 357.482 1155.94 358.924C1157.38 360.126 1160.39 360.727 1164.96 360.727ZM1188.75 207.13H1275.29V382H1188.75V372.626C1185.39 378.875 1178.42 382 1167.84 382H1095.73C1076.74 382 1067.25 372.505 1067.25 353.516V235.614C1067.25 216.624 1076.74 207.13 1095.73 207.13H1167.84C1178.42 207.13 1185.39 210.255 1188.75 216.504V207.13Z" fill="#B70000"/>
<path d="M926.036 281.765H967.5V239.58C967.5 235.013 966.779 232.008 965.337 230.566C964.135 229.124 961.13 228.403 956.323 228.403H937.213C932.646 228.403 929.642 229.124 928.2 230.566C926.757 232.008 926.036 235.013 926.036 239.58V281.765ZM867.987 207.13H1022.67C1041.65 207.13 1051.15 216.624 1051.15 235.614V303.038H926.036V349.55C926.036 354.357 926.757 357.482 928.2 358.924C929.642 360.126 932.646 360.727 937.213 360.727H956.323C961.13 360.727 964.135 360.126 965.337 358.924C966.779 357.482 967.5 354.357 967.5 349.55V322.869H1051.15V353.516C1051.15 372.505 1041.65 382 1022.67 382H867.987C848.997 382 839.503 372.505 839.503 353.516V235.614C839.503 216.624 848.997 207.13 867.987 207.13Z" fill="#B70000"/>
<path d="M821.573 234.532H729.992V190.184C729.992 185.376 729.271 182.372 727.828 181.17C726.386 179.727 723.382 179.006 718.814 179.006H702.589C697.782 179.006 694.657 179.727 693.215 181.17C692.013 182.372 691.412 185.376 691.412 190.184V349.55C691.412 354.357 692.013 357.482 693.215 358.924C694.657 360.126 697.782 360.727 702.589 360.727H718.814C723.382 360.727 726.386 360.126 727.828 358.924C729.271 357.482 729.992 354.357 729.992 349.55V287.895H707.277V266.622H821.573V353.516C821.573 372.505 812.079 382 793.089 382H628.315C609.325 382 599.831 372.505 599.831 353.516V186.217C599.831 167.228 609.325 157.733 628.315 157.733H793.089C812.079 157.733 821.573 167.228 821.573 186.217V234.532Z" fill="#B70000"/>
<path d="M0 113.86C0 50.9769 50.9769 0 113.86 0H398.511C461.394 0 512.371 50.9769 512.371 113.86V512.371H113.86C50.9769 512.371 0 461.394 0 398.511V113.86Z" fill="#B70000"/>
<path d="M366.819 231.996H275.238V187.648C275.238 182.84 274.517 179.836 273.074 178.634C271.632 177.192 268.628 176.47 264.061 176.47H247.835C243.028 176.47 239.903 177.192 238.461 178.634C237.259 179.836 236.658 182.84 236.658 187.648V347.014C236.658 351.821 237.259 354.946 238.461 356.388C239.903 357.59 243.028 358.191 247.835 358.191H264.061C268.628 358.191 271.632 357.59 273.074 356.388C274.517 354.946 275.238 351.821 275.238 347.014V285.359H252.523V264.086H366.819V350.98C366.819 369.969 357.325 379.464 338.335 379.464H173.561C154.571 379.464 145.077 369.969 145.077 350.98V183.682C145.077 164.692 154.571 155.198 173.561 155.198H338.335C357.325 155.198 366.819 164.692 366.819 183.682V231.996Z" fill="white"/>
</svg>
