<svg width="1445" height="513" viewBox="0 0 1445 513" fill="none" xmlns="http://www.w3.org/2000/svg">
<path d="M1429.48 206.16H1444.26V232.841H1411.81C1402.43 232.841 1395.34 235.365 1390.54 240.413C1385.73 245.461 1383.32 252.071 1383.32 260.243V382.112H1296.79V207.242H1383.32V228.514C1389.33 213.611 1404.72 206.16 1429.48 206.16Z" fill="white"/>
<path d="M1164.96 360.839H1175.05C1184.19 360.839 1188.75 357.353 1188.75 350.383V238.97C1188.75 232 1184.19 228.514 1175.05 228.514H1164.96C1160.39 228.514 1157.38 229.235 1155.94 230.678C1154.5 232.12 1153.78 235.125 1153.78 239.692V349.662C1153.78 354.469 1154.5 357.594 1155.94 359.036C1157.38 360.238 1160.39 360.839 1164.96 360.839ZM1188.75 207.241H1275.29V382.112H1188.75V372.737C1185.39 378.987 1178.42 382.112 1167.84 382.112H1095.73C1076.74 382.112 1067.25 372.617 1067.25 353.628V235.725C1067.25 216.736 1076.74 207.241 1095.73 207.241H1167.84C1178.42 207.241 1185.39 210.366 1188.75 216.616V207.241Z" fill="white"/>
<path d="M926.036 281.877H967.5V239.692C967.5 235.125 966.779 232.12 965.337 230.678C964.135 229.235 961.13 228.514 956.323 228.514H937.213C932.646 228.514 929.642 229.235 928.2 230.678C926.757 232.12 926.036 235.125 926.036 239.692V281.877ZM867.987 207.241H1022.67C1041.65 207.241 1051.15 216.736 1051.15 235.725V303.15H926.036V349.662C926.036 354.469 926.757 357.594 928.2 359.036C929.642 360.238 932.646 360.839 937.213 360.839H956.323C961.13 360.839 964.135 360.238 965.337 359.036C966.779 357.594 967.5 354.469 967.5 349.662V322.98H1051.15V353.628C1051.15 372.617 1041.65 382.112 1022.67 382.112H867.987C848.997 382.112 839.503 372.617 839.503 353.628V235.725C839.503 216.736 848.997 207.241 867.987 207.241Z" fill="white"/>
<path d="M821.573 234.644H729.992V190.295C729.992 185.488 729.271 182.483 727.828 181.281C726.386 179.839 723.382 179.118 718.814 179.118H702.589C697.782 179.118 694.657 179.839 693.215 181.281C692.013 182.483 691.412 185.488 691.412 190.295V349.662C691.412 354.469 692.013 357.594 693.215 359.036C694.657 360.238 697.782 360.839 702.589 360.839H718.814C723.382 360.839 726.386 360.238 727.828 359.036C729.271 357.594 729.992 354.469 729.992 349.662V288.006H707.277V266.733H821.573V353.628C821.573 372.617 812.079 382.112 793.089 382.112H628.315C609.325 382.112 599.831 372.617 599.831 353.628V186.329C599.831 167.34 609.325 157.845 628.315 157.845H793.089C812.079 157.845 821.573 167.34 821.573 186.329V234.644Z" fill="white"/>
<path d="M0 113.972C0 51.0887 50.9769 0.111816 113.86 0.111816H398.511C461.394 0.111816 512.371 51.0887 512.371 113.972V512.482H113.86C50.9769 512.482 0 461.506 0 398.622V113.972Z" fill="white"/>
<path d="M366.819 232.108H275.238V187.759C275.238 182.952 274.517 179.947 273.074 178.746C271.632 177.303 268.628 176.582 264.061 176.582H247.835C243.028 176.582 239.903 177.303 238.461 178.746C237.259 179.947 236.658 182.952 236.658 187.759V347.126C236.658 351.933 237.259 355.058 238.461 356.5C239.903 357.702 243.028 358.303 247.835 358.303H264.061C268.628 358.303 271.632 357.702 273.074 356.5C274.517 355.058 275.238 351.933 275.238 347.126V285.47H252.523V264.198H366.819V351.092C366.819 370.081 357.325 379.576 338.335 379.576H173.561C154.571 379.576 145.077 370.081 145.077 351.092V183.793C145.077 164.804 154.571 155.309 173.561 155.309H338.335C357.325 155.309 366.819 164.804 366.819 183.793V232.108Z" fill="#040404"/>
</svg>
