<svg width="1445" height="514" viewBox="0 0 1445 514" fill="none" xmlns="http://www.w3.org/2000/svg">
<path d="M1429.48 206.789H1444.26V233.471H1411.81C1402.43 233.471 1395.34 235.994 1390.54 241.042C1385.73 246.09 1383.32 252.7 1383.32 260.873V382.741H1296.79V207.871H1383.32V229.144C1389.33 214.241 1404.72 206.789 1429.48 206.789Z" fill="#040404"/>
<path d="M1164.96 361.468H1175.05C1184.19 361.468 1188.75 357.983 1188.75 351.012V239.6C1188.75 232.629 1184.19 229.144 1175.05 229.144H1164.96C1160.39 229.144 1157.38 229.865 1155.94 231.307C1154.5 232.749 1153.78 235.754 1153.78 240.321V350.291C1153.78 355.098 1154.5 358.223 1155.94 359.665C1157.38 360.867 1160.39 361.468 1164.96 361.468ZM1188.75 207.871H1275.29V382.741H1188.75V373.367C1185.39 379.616 1178.42 382.741 1167.84 382.741H1095.73C1076.74 382.741 1067.25 373.246 1067.25 354.257V236.355C1067.25 217.366 1076.74 207.871 1095.73 207.871H1167.84C1178.42 207.871 1185.39 210.996 1188.75 217.245V207.871Z" fill="#040404"/>
<path d="M926.036 282.506H967.5V240.321C967.5 235.754 966.779 232.749 965.337 231.307C964.135 229.865 961.13 229.144 956.323 229.144H937.213C932.646 229.144 929.642 229.865 928.2 231.307C926.757 232.749 926.036 235.754 926.036 240.321V282.506ZM867.987 207.871H1022.67C1041.65 207.871 1051.15 217.366 1051.15 236.355V303.779H926.036V350.291C926.036 355.098 926.757 358.223 928.2 359.665C929.642 360.867 932.646 361.468 937.213 361.468H956.323C961.13 361.468 964.135 360.867 965.337 359.665C966.779 358.223 967.5 355.098 967.5 350.291V323.61H1051.15V354.257C1051.15 373.246 1041.65 382.741 1022.67 382.741H867.987C848.997 382.741 839.503 373.246 839.503 354.257V236.355C839.503 217.366 848.997 207.871 867.987 207.871Z" fill="#040404"/>
<path d="M821.573 235.273H729.992V190.925C729.992 186.117 729.271 183.113 727.828 181.911C726.386 180.469 723.382 179.747 718.814 179.747H702.589C697.782 179.747 694.657 180.469 693.215 181.911C692.013 183.113 691.412 186.117 691.412 190.925V350.291C691.412 355.098 692.013 358.223 693.215 359.665C694.657 360.867 697.782 361.468 702.589 361.468H718.814C723.382 361.468 726.386 360.867 727.828 359.665C729.271 358.223 729.992 355.098 729.992 350.291V288.636H707.277V267.363H821.573V354.257C821.573 373.246 812.079 382.741 793.089 382.741H628.315C609.325 382.741 599.831 373.246 599.831 354.257V186.959C599.831 167.969 609.325 158.475 628.315 158.475H793.089C812.079 158.475 821.573 167.969 821.573 186.959V235.273Z" fill="#040404"/>
<path d="M0 114.601C0 51.7181 50.9769 0.741211 113.86 0.741211H398.511C461.394 0.741211 512.371 51.7181 512.371 114.601V513.112H113.86C50.9769 513.112 0 462.135 0 399.252V114.601Z" fill="#040404"/>
<path d="M366.819 232.737H275.238V188.389C275.238 183.581 274.517 180.577 273.074 179.375C271.632 177.933 268.628 177.212 264.061 177.212H247.835C243.028 177.212 239.903 177.933 238.461 179.375C237.259 180.577 236.658 183.581 236.658 188.389V347.755C236.658 352.563 237.259 355.687 238.461 357.13C239.903 358.331 243.028 358.932 247.835 358.932H264.061C268.628 358.932 271.632 358.331 273.074 357.13C274.517 355.687 275.238 352.563 275.238 347.755V286.1H252.523V264.827H366.819V351.721C366.819 370.711 357.325 380.205 338.335 380.205H173.561C154.571 380.205 145.077 370.711 145.077 351.721V184.423C145.077 165.433 154.571 155.939 173.561 155.939H338.335C357.325 155.939 366.819 165.433 366.819 184.423V232.737Z" fill="white"/>
</svg>
