<svg width="513" height="513" viewBox="0 0 513 513" fill="none" xmlns="http://www.w3.org/2000/svg">
<path d="M0 113.972C0 51.0889 50.9769 0.112061 113.86 0.112061H398.511C461.394 0.112061 512.371 51.089 512.371 113.972V512.483H113.86C50.9769 512.483 0 461.506 0 398.623V113.972Z" fill="white"/>
<path d="M366.819 232.108H275.238V187.76C275.238 182.952 274.517 179.948 273.074 178.746C271.632 177.304 268.628 176.582 264.061 176.582H247.835C243.028 176.582 239.903 177.304 238.461 178.746C237.259 179.948 236.658 182.952 236.658 187.76V347.126C236.658 351.933 237.259 355.058 238.461 356.5C239.903 357.702 243.028 358.303 247.835 358.303H264.061C268.628 358.303 271.632 357.702 273.074 356.5C274.517 355.058 275.238 351.933 275.238 347.126V285.471H252.523V264.198H366.819V351.092C366.819 370.081 357.325 379.576 338.335 379.576H173.561C154.571 379.576 145.077 370.081 145.077 351.092V183.794C145.077 164.804 154.571 155.31 173.561 155.31H338.335C357.325 155.31 366.819 164.804 366.819 183.794V232.108Z" fill="#040404"/>
</svg>
