<svg width="513" height="513" viewBox="0 0 513 513" fill="none" xmlns="http://www.w3.org/2000/svg">
<path d="M0 114.231C0 51.3475 50.9769 0.370605 113.86 0.370605H398.511C461.394 0.370605 512.371 51.3475 512.371 114.231V512.741H113.86C50.9769 512.741 0 461.764 0 398.881V114.231Z" fill="white"/>
<path d="M366.819 232.367H275.238V188.018C275.238 183.211 274.517 180.206 273.074 179.004C271.632 177.562 268.628 176.841 264.061 176.841H247.835C243.028 176.841 239.903 177.562 238.461 179.004C237.259 180.206 236.658 183.211 236.658 188.018V347.385C236.658 352.192 237.259 355.317 238.461 356.759C239.903 357.961 243.028 358.562 247.835 358.562H264.061C268.628 358.562 271.632 357.961 273.074 356.759C274.517 355.317 275.238 352.192 275.238 347.385V285.729H252.523V264.456H366.819V351.351C366.819 370.34 357.325 379.835 338.335 379.835H173.561C154.571 379.835 145.077 370.34 145.077 351.351V184.052C145.077 165.063 154.571 155.568 173.561 155.568H338.335C357.325 155.568 366.819 165.063 366.819 184.052V232.367Z" fill="#B70000"/>
</svg>
