<svg width="513" height="514" viewBox="0 0 513 514" fill="none" xmlns="http://www.w3.org/2000/svg">
<path d="M0 114.601C0 51.7181 50.9769 0.741211 113.86 0.741211H398.511C461.394 0.741211 512.371 51.7181 512.371 114.601V513.112H113.86C50.9769 513.112 0 462.135 0 399.252V114.601Z" fill="#040404"/>
<path d="M366.819 232.737H275.238V188.389C275.238 183.581 274.517 180.577 273.074 179.375C271.632 177.933 268.628 177.212 264.061 177.212H247.835C243.028 177.212 239.903 177.933 238.461 179.375C237.259 180.577 236.658 183.581 236.658 188.389V347.755C236.658 352.563 237.259 355.687 238.461 357.13C239.903 358.331 243.028 358.932 247.835 358.932H264.061C268.628 358.932 271.632 358.331 273.074 357.13C274.517 355.687 275.238 352.563 275.238 347.755V286.1H252.523V264.827H366.819V351.721C366.819 370.711 357.325 380.205 338.335 380.205H173.561C154.571 380.205 145.077 370.711 145.077 351.721V184.423C145.077 165.433 154.571 155.939 173.561 155.939H338.335C357.325 155.939 366.819 165.433 366.819 184.423V232.737Z" fill="white"/>
</svg>
