<svg width="845" height="845" viewBox="0 0 845 845" fill="none" xmlns="http://www.w3.org/2000/svg">
<path fill-rule="evenodd" clip-rule="evenodd" d="M0 0H845V845H0V0ZM184 290C184 231.458 231.458 184 290 184H555C613.542 184 661 231.458 661 290V661H290C231.458 661 184 613.542 184 555V290ZM440.176 389.497H525.435V344.518C525.435 326.839 516.596 318 498.917 318H345.518C327.839 318 319 326.839 319 344.518V500.267C319 517.945 327.839 526.785 345.518 526.785H498.917C516.596 526.785 525.435 517.945 525.435 500.267V419.371H419.029V439.176H440.176V496.575C440.176 501.05 439.504 503.959 438.162 505.302C436.819 506.421 434.022 506.98 429.77 506.98H414.665C410.189 506.98 407.28 506.421 405.938 505.302C404.819 503.959 404.259 501.05 404.259 496.575V348.21C404.259 343.734 404.819 340.937 405.938 339.818C407.28 338.476 410.189 337.804 414.665 337.804H429.77C434.022 337.804 436.819 338.476 438.162 339.818C439.504 340.937 440.176 343.734 440.176 348.21V389.497Z" fill="#040404"/>
</svg>
