<svg width="845" height="845" viewBox="0 0 845 845" fill="none" xmlns="http://www.w3.org/2000/svg">
<path d="M0 0H845V845H0V0Z" fill="white"/>
<path d="M184 290C184 231.458 231.458 184 290 184H555C613.542 184 661 231.458 661 290V661H290C231.458 661 184 613.542 184 555V290Z" fill="#B70000"/>
<path d="M525.435 389.497H440.176V348.21C440.176 343.734 439.504 340.937 438.162 339.818C436.819 338.476 434.022 337.804 429.77 337.804H414.665C410.189 337.804 407.28 338.476 405.938 339.818C404.819 340.937 404.259 343.734 404.259 348.21V496.575C404.259 501.05 404.819 503.959 405.938 505.302C407.28 506.421 410.189 506.98 414.665 506.98H429.77C434.022 506.98 436.819 506.421 438.162 505.302C439.504 503.959 440.176 501.05 440.176 496.575V439.176H419.029V419.371H525.435V500.267C525.435 517.945 516.596 526.785 498.917 526.785H345.518C327.839 526.785 319 517.945 319 500.267V344.518C319 326.839 327.839 318 345.518 318H498.917C516.596 318 525.435 326.839 525.435 344.518V389.497Z" fill="white"/>
</svg>
