<svg width="845" height="225" viewBox="0 0 845 225" fill="none" xmlns="http://www.w3.org/2000/svg">
<path d="M829.644 48.3147H844.427V74.9959H811.977C802.603 74.9959 795.512 77.5198 790.704 82.5676C785.897 87.6154 783.493 94.2256 783.493 102.398V224.267H696.959V49.3963H783.493V70.6692C789.503 55.7662 804.886 48.3147 829.644 48.3147Z" fill="#B70000"/>
<path d="M565.125 202.994H575.221C584.355 202.994 588.922 199.508 588.922 192.537V81.1254C588.922 74.1546 584.355 70.6692 575.221 70.6692H565.125C560.558 70.6692 557.554 71.3903 556.111 72.8325C554.669 74.2748 553.948 77.2794 553.948 81.8465V191.816C553.948 196.624 554.669 199.749 556.111 201.191C557.554 202.393 560.558 202.994 565.125 202.994ZM588.922 49.3963H675.456V224.267H588.922V214.892C585.557 221.142 578.586 224.267 568.01 224.267H495.898C476.909 224.267 467.414 214.772 467.414 195.783V77.8803C467.414 58.891 476.909 49.3963 495.898 49.3963H568.01C578.586 49.3963 585.557 52.5212 588.922 58.7708V49.3963Z" fill="#B70000"/>
<path d="M326.206 124.032H367.67V81.8465C367.67 77.2794 366.949 74.2748 365.506 72.8325C364.304 71.3903 361.3 70.6692 356.492 70.6692H337.383C332.816 70.6692 329.811 71.3903 328.369 72.8325C326.927 74.2748 326.206 77.2794 326.206 81.8465V124.032ZM268.156 49.3963H422.835C441.824 49.3963 451.319 58.891 451.319 77.8803V145.305H326.206V191.816C326.206 196.624 326.927 199.749 328.369 201.191C329.811 202.393 332.816 202.994 337.383 202.994H356.492C361.3 202.994 364.304 202.393 365.506 201.191C366.949 199.749 367.67 196.624 367.67 191.816V165.135H451.319V195.783C451.319 214.772 441.824 224.267 422.835 224.267H268.156C249.167 224.267 239.672 214.772 239.672 195.783V77.8803C239.672 58.891 249.167 49.3963 268.156 49.3963Z" fill="#B70000"/>
<path d="M221.743 76.7987H130.161V32.4502C130.161 27.6427 129.44 24.6381 127.998 23.4362C126.556 21.994 123.551 21.2729 118.984 21.2729H102.759C97.9514 21.2729 94.8265 21.994 93.3843 23.4362C92.1824 24.6381 91.5815 27.6427 91.5815 32.4502V191.816C91.5815 196.624 92.1824 199.749 93.3843 201.191C94.8265 202.393 97.9514 202.994 102.759 202.994H118.984C123.551 202.994 126.556 202.393 127.998 201.191C129.44 199.749 130.161 196.624 130.161 191.816V130.161H107.446V108.888H221.743V195.783C221.743 214.772 212.248 224.267 193.259 224.267H28.484C9.49467 224.267 0 214.772 0 195.783V28.484C0 9.49468 9.49467 0 28.484 0H193.259C212.248 0 221.743 9.49468 221.743 28.484V76.7987Z" fill="#B70000"/>
</svg>
