<svg width="845" height="225" viewBox="0 0 845 225" fill="none" xmlns="http://www.w3.org/2000/svg">
<path d="M829.644 48.5812H844.427V75.2625H811.977C802.603 75.2625 795.512 77.7864 790.704 82.8342C785.897 87.882 783.493 94.4922 783.493 102.665V224.533H696.959V49.6629H783.493V70.9358C789.503 56.0327 804.886 48.5812 829.644 48.5812Z" fill="white"/>
<path d="M565.125 203.26H575.221C584.355 203.26 588.922 199.775 588.922 192.804V81.392C588.922 74.4212 584.355 70.9358 575.221 70.9358H565.125C560.558 70.9358 557.554 71.6569 556.111 73.0992C554.669 74.5414 553.948 77.546 553.948 82.1131V192.083C553.948 196.89 554.669 200.015 556.111 201.458C557.554 202.659 560.558 203.26 565.125 203.26ZM588.922 49.663H675.456V224.533H588.922V215.159C585.557 221.408 578.586 224.533 568.01 224.533H495.898C476.909 224.533 467.414 215.038 467.414 196.049V78.147C467.414 59.1576 476.909 49.663 495.898 49.663H568.01C578.586 49.663 585.557 52.7878 588.922 59.0374V49.663Z" fill="white"/>
<path d="M326.206 124.298H367.67V82.1131C367.67 77.546 366.949 74.5414 365.506 73.0992C364.304 71.6569 361.3 70.9358 356.492 70.9358H337.383C332.816 70.9358 329.811 71.6569 328.369 73.0992C326.927 74.5414 326.206 77.546 326.206 82.1131V124.298ZM268.156 49.663H422.835C441.824 49.663 451.319 59.1576 451.319 78.147V145.571H326.206V192.083C326.206 196.89 326.927 200.015 328.369 201.458C329.811 202.659 332.816 203.26 337.383 203.26H356.492C361.3 203.26 364.304 202.659 365.506 201.458C366.949 200.015 367.67 196.89 367.67 192.083V165.402H451.319V196.049C451.319 215.038 441.824 224.533 422.835 224.533H268.156C249.167 224.533 239.672 215.038 239.672 196.049V78.147C239.672 59.1576 249.167 49.663 268.156 49.663Z" fill="white"/>
<path d="M221.743 77.0653H130.161V32.7168C130.161 27.9093 129.44 24.9047 127.998 23.7028C126.556 22.2606 123.551 21.5395 118.984 21.5395H102.759C97.9514 21.5395 94.8265 22.2606 93.3843 23.7028C92.1824 24.9047 91.5815 27.9093 91.5815 32.7168V192.083C91.5815 196.89 92.1824 200.015 93.3843 201.457C94.8265 202.659 97.9514 203.26 102.759 203.26H118.984C123.551 203.26 126.556 202.659 127.998 201.457C129.44 200.015 130.161 196.89 130.161 192.083V130.428H107.446V109.155H221.743V196.049C221.743 215.038 212.248 224.533 193.259 224.533H28.484C9.49467 224.533 0 215.038 0 196.049V28.7506C0 9.76128 9.49467 0.266602 28.484 0.266602H193.259C212.248 0.266602 221.743 9.76128 221.743 28.7506V77.0653Z" fill="white"/>
</svg>
