<svg width="1118" height="502" viewBox="0 0 1118 502" fill="none" xmlns="http://www.w3.org/2000/svg">
<path fill-rule="evenodd" clip-rule="evenodd" d="M0 0.799561H1118V501.8H0V0.799561ZM966.645 187.114H981.427V213.795H948.977C939.603 213.795 932.512 216.319 927.704 221.367C922.897 226.415 920.493 233.025 920.493 241.198V363.066H833.96V188.196H920.493V209.469C926.503 194.566 941.886 187.114 966.645 187.114ZM712.221 341.793H702.125C697.558 341.793 694.554 341.192 693.111 339.99C691.669 338.548 690.948 335.423 690.948 330.616V220.646C690.948 216.079 691.669 213.074 693.111 211.632C694.554 210.19 697.558 209.469 702.125 209.469H712.221C721.355 209.469 725.922 212.954 725.922 219.925V331.337C725.922 338.308 721.355 341.793 712.221 341.793ZM812.456 188.196H725.922V197.57C722.557 191.321 715.586 188.196 705.01 188.196H632.898C613.909 188.196 604.414 197.691 604.414 216.68V334.582C604.414 353.571 613.909 363.066 632.898 363.066H705.01C715.586 363.066 722.557 359.941 725.922 353.692V363.066H812.456V188.196ZM463.206 262.831H504.67V220.646C504.67 216.079 503.949 213.074 502.506 211.632C501.304 210.19 498.3 209.469 493.492 209.469H474.383C469.816 209.469 466.811 210.19 465.369 211.632C463.927 213.074 463.206 216.079 463.206 220.646V262.831ZM405.156 188.196H559.835C578.824 188.196 588.319 197.691 588.319 216.68V284.104H463.206V330.616C463.206 335.423 463.927 338.548 465.369 339.99C466.811 341.192 469.816 341.793 474.383 341.793H493.492C498.3 341.793 501.304 341.192 502.506 339.99C503.949 338.548 504.67 335.423 504.67 330.616V303.935H588.319V334.582C588.319 353.571 578.824 363.066 559.835 363.066H405.156C386.167 363.066 376.672 353.571 376.672 334.582V216.68C376.672 197.691 386.167 188.196 405.156 188.196ZM267.161 215.598H358.743V167.284C358.743 148.294 349.248 138.8 330.259 138.8H165.484C146.495 138.8 137 148.294 137 167.284V334.582C137 353.571 146.495 363.066 165.484 363.066H330.259C349.248 363.066 358.743 353.571 358.743 334.582V247.688H244.446V268.961H267.161V330.616C267.161 335.423 266.44 338.548 264.998 339.99C263.556 341.192 260.551 341.793 255.984 341.793H239.759C234.951 341.793 231.827 341.192 230.384 339.99C229.182 338.548 228.582 335.423 228.582 330.616V171.25C228.582 166.442 229.182 163.438 230.384 162.236C231.827 160.794 234.951 160.072 239.759 160.072H255.984C260.551 160.072 263.556 160.794 264.998 162.236C266.44 163.438 267.161 166.442 267.161 171.25V215.598Z" fill="#040404"/>
</svg>
