<svg width="845" height="225" viewBox="0 0 845 225" fill="none" xmlns="http://www.w3.org/2000/svg">
<path d="M829.644 48.8479H844.427V75.5291H811.977C802.603 75.5291 795.512 78.053 790.704 83.1008C785.897 88.1486 783.493 94.7588 783.493 102.931V224.8H696.959V49.9296H783.493V71.2024C789.503 56.2994 804.886 48.8479 829.644 48.8479Z" fill="#040404"/>
<path d="M565.125 203.527H575.221C584.355 203.527 588.922 200.041 588.922 193.071V81.6586C588.922 74.6878 584.355 71.2024 575.221 71.2024H565.125C560.558 71.2024 557.554 71.9235 556.111 73.3658C554.669 74.808 553.948 77.8126 553.948 82.3797V192.35C553.948 197.157 554.669 200.282 556.111 201.724C557.554 202.926 560.558 203.527 565.125 203.527ZM588.922 49.9296H675.456V224.8H588.922V215.425C585.557 221.675 578.586 224.8 568.01 224.8H495.898C476.909 224.8 467.414 215.305 467.414 196.316V78.4136C467.414 59.4242 476.909 49.9296 495.898 49.9296H568.01C578.586 49.9296 585.557 53.0544 588.922 59.304V49.9296Z" fill="#040404"/>
<path d="M326.206 124.565H367.67V82.3797C367.67 77.8126 366.949 74.808 365.506 73.3658C364.304 71.9235 361.3 71.2024 356.492 71.2024H337.383C332.816 71.2024 329.811 71.9235 328.369 73.3658C326.927 74.808 326.206 77.8126 326.206 82.3797V124.565ZM268.156 49.9296H422.835C441.824 49.9296 451.319 59.4242 451.319 78.4136V145.838H326.206V192.35C326.206 197.157 326.927 200.282 328.369 201.724C329.811 202.926 332.816 203.527 337.383 203.527H356.492C361.3 203.527 364.304 202.926 365.506 201.724C366.949 200.282 367.67 197.157 367.67 192.35V165.668H451.319V196.316C451.319 215.305 441.824 224.8 422.835 224.8H268.156C249.167 224.8 239.672 215.305 239.672 196.316V78.4136C239.672 59.4242 249.167 49.9296 268.156 49.9296Z" fill="#040404"/>
<path d="M221.743 77.3319H130.161V32.9834C130.161 28.1759 129.44 25.1713 127.998 23.9694C126.556 22.5272 123.551 21.8061 118.984 21.8061H102.759C97.9514 21.8061 94.8265 22.5272 93.3843 23.9694C92.1824 25.1713 91.5815 28.1759 91.5815 32.9834V192.35C91.5815 197.157 92.1824 200.282 93.3843 201.724C94.8265 202.926 97.9514 203.527 102.759 203.527H118.984C123.551 203.527 126.556 202.926 127.998 201.724C129.44 200.282 130.161 197.157 130.161 192.35V130.694H107.446V109.421H221.743V196.316C221.743 215.305 212.248 224.8 193.259 224.8H28.484C9.49467 224.8 0 215.305 0 196.316V29.0172C0 10.0279 9.49467 0.533203 28.484 0.533203H193.259C212.248 0.533203 221.743 10.0279 221.743 29.0172V77.3319Z" fill="#040404"/>
</svg>
