<svg width="509" height="515" viewBox="0 0 509 515" fill="none" xmlns="http://www.w3.org/2000/svg">
<path d="M508.02 176.431H298.204V74.8271C298.204 63.8131 296.552 56.9293 293.247 54.1758C289.943 50.8717 283.059 49.2196 272.596 49.2196H235.424C224.41 49.2196 217.251 50.8717 213.947 54.1758C211.193 56.9293 209.816 63.8131 209.816 74.8271V439.941C209.816 450.955 211.193 458.114 213.947 461.418C217.251 464.172 224.41 465.548 235.424 465.548H272.596C283.059 465.548 289.943 464.172 293.247 461.418C296.552 458.114 298.204 450.955 298.204 439.941V298.686H246.163V249.949H508.02V449.027C508.02 492.533 486.267 514.285 442.762 514.285H65.2579C21.7526 514.285 0 492.533 0 449.027V65.7405C0 22.2353 21.7526 0.482666 65.2579 0.482666H442.762C486.267 0.482666 508.02 22.2353 508.02 65.7405V176.431Z" fill="#B70000"/>
</svg>
