<svg width="513" height="513" viewBox="0 0 513 513" fill="none" xmlns="http://www.w3.org/2000/svg">
<path fill-rule="evenodd" clip-rule="evenodd" d="M113.86 0.285156C50.9769 0.285156 0 51.262 0 114.145V398.796C0 461.679 50.9769 512.656 113.86 512.656H512.371V114.145C512.371 51.2621 461.394 0.285156 398.511 0.285156H113.86ZM275.238 232.282H366.819V183.967C366.819 164.978 357.325 155.483 338.335 155.483H173.561C154.571 155.483 145.077 164.978 145.077 183.967V351.265C145.077 370.255 154.571 379.749 173.561 379.749H338.335C357.325 379.749 366.819 370.255 366.819 351.265V264.371H252.523V285.644H275.238V347.299C275.238 352.107 274.517 355.232 273.074 356.674C271.632 357.876 268.628 358.477 264.06 358.477H247.835C243.028 358.477 239.903 357.876 238.461 356.674C237.259 355.232 236.658 352.107 236.658 347.299V187.933C236.658 183.126 237.259 180.121 238.461 178.919C239.903 177.477 243.028 176.756 247.835 176.756H264.06C268.628 176.756 271.632 177.477 273.074 178.919C274.517 180.121 275.238 183.126 275.238 187.933V232.282Z" fill="#040404"/>
</svg>
