<svg width="513" height="513" viewBox="0 0 513 513" fill="none" xmlns="http://www.w3.org/2000/svg">
<path d="M0 113.86C0 50.9769 50.9769 0 113.86 0H398.511C461.394 0 512.371 50.9769 512.371 113.86V512.371H113.86C50.9769 512.371 0 461.394 0 398.511V113.86Z" fill="#B70000"/>
<path d="M366.819 231.996H275.238V187.648C275.238 182.84 274.517 179.836 273.074 178.634C271.632 177.192 268.628 176.47 264.061 176.47H247.835C243.028 176.47 239.903 177.192 238.461 178.634C237.259 179.836 236.658 182.84 236.658 187.648V347.014C236.658 351.821 237.259 354.946 238.461 356.388C239.903 357.59 243.028 358.191 247.835 358.191H264.061C268.628 358.191 271.632 357.59 273.074 356.388C274.517 354.946 275.238 351.821 275.238 347.014V285.359H252.523V264.086H366.819V350.98C366.819 369.969 357.325 379.464 338.335 379.464H173.561C154.571 379.464 145.077 369.969 145.077 350.98V183.682C145.077 164.692 154.571 155.198 173.561 155.198H338.335C357.325 155.198 366.819 164.692 366.819 183.682V231.996Z" fill="white"/>
</svg>
